STARTFONT 2.1
COMMENT Recovered from 5x5.kst (MIT CADR PDP-10 interchange font source (KST))
FONT MIT-CADR-5X5
SIZE 5 72 72
FONTBOUNDINGBOX 5 5 0 0
STARTPROPERTIES 2
FONT_ASCENT 5
FONT_DESCENT 0
ENDPROPERTIES
CHARS 87
STARTCHAR C0020
ENCODING -1 32
SWIDTH 1200 0
DWIDTH 6 0
BBX 1 5 0 0
BITMAP
00
00
00
00
00
ENDCHAR
STARTCHAR C0021
ENCODING -1 33
SWIDTH 1200 0
DWIDTH 6 0
BBX 1 5 2 0
BITMAP
80
80
80
00
80
ENDCHAR
STARTCHAR C0022
ENCODING -1 34
SWIDTH 1200 0
DWIDTH 6 0
BBX 3 5 1 0
BITMAP
A0
A0
00
00
00
ENDCHAR
STARTCHAR C0026
ENCODING -1 38
SWIDTH 1200 0
DWIDTH 6 0
BBX 5 5 0 0
BITMAP
40
A0
68
90
68
ENDCHAR
STARTCHAR C0027
ENCODING -1 39
SWIDTH 1200 0
DWIDTH 6 0
BBX 2 5 2 0
BITMAP
40
40
80
00
00
ENDCHAR
STARTCHAR C0028
ENCODING -1 40
SWIDTH 1200 0
DWIDTH 6 0
BBX 2 5 2 0
BITMAP
40
80
80
80
40
ENDCHAR
STARTCHAR C0029
ENCODING -1 41
SWIDTH 1200 0
DWIDTH 6 0
BBX 2 5 2 0
BITMAP
80
40
40
40
80
ENDCHAR
STARTCHAR C002A
ENCODING -1 42
SWIDTH 1200 0
DWIDTH 6 0
BBX 5 5 0 0
BITMAP
A8
70
20
70
A8
ENDCHAR
STARTCHAR C002B
ENCODING -1 43
SWIDTH 1200 0
DWIDTH 6 0
BBX 5 5 0 0
BITMAP
20
20
F8
20
20
ENDCHAR
STARTCHAR C002C
ENCODING -1 44
SWIDTH 1200 0
DWIDTH 6 0
BBX 2 5 1 0
BITMAP
00
00
00
40
80
ENDCHAR
STARTCHAR C002D
ENCODING -1 45
SWIDTH 1200 0
DWIDTH 6 0
BBX 5 5 0 0
BITMAP
00
00
F8
00
00
ENDCHAR
STARTCHAR C002E
ENCODING -1 46
SWIDTH 1200 0
DWIDTH 6 0
BBX 1 5 2 0
BITMAP
00
00
00
00
80
ENDCHAR
STARTCHAR C002F
ENCODING -1 47
SWIDTH 1200 0
DWIDTH 6 0
BBX 5 5 0 0
BITMAP
08
10
20
40
80
ENDCHAR
STARTCHAR C0030
ENCODING -1 48
SWIDTH 1200 0
DWIDTH 6 0
BBX 4 5 1 0
BITMAP
60
90
90
90
60
ENDCHAR
STARTCHAR C0031
ENCODING -1 49
SWIDTH 1200 0
DWIDTH 6 0
BBX 4 5 0 0
BITMAP
60
20
20
20
70
ENDCHAR
STARTCHAR C0032
ENCODING -1 50
SWIDTH 1200 0
DWIDTH 6 0
BBX 5 5 0 0
BITMAP
70
88
10
20
F8
ENDCHAR
STARTCHAR C0033
ENCODING -1 51
SWIDTH 1200 0
DWIDTH 6 0
BBX 5 5 0 0
BITMAP
70
88
30
88
70
ENDCHAR
STARTCHAR C0034
ENCODING -1 52
SWIDTH 1200 0
DWIDTH 6 0
BBX 5 5 0 0
BITMAP
90
90
F8
10
10
ENDCHAR
STARTCHAR C0035
ENCODING -1 53
SWIDTH 1200 0
DWIDTH 6 0
BBX 5 5 0 0
BITMAP
F8
80
F0
08
F0
ENDCHAR
STARTCHAR C0036
ENCODING -1 54
SWIDTH 1200 0
DWIDTH 6 0
BBX 5 5 0 0
BITMAP
70
80
F0
88
F0
ENDCHAR
STARTCHAR C0037
ENCODING -1 55
SWIDTH 1200 0
DWIDTH 6 0
BBX 5 5 0 0
BITMAP
F8
08
10
10
20
ENDCHAR
STARTCHAR C0038
ENCODING -1 56
SWIDTH 1200 0
DWIDTH 6 0
BBX 5 5 0 0
BITMAP
70
88
70
88
70
ENDCHAR
STARTCHAR C0039
ENCODING -1 57
SWIDTH 1200 0
DWIDTH 6 0
BBX 5 5 0 0
BITMAP
70
88
78
08
70
ENDCHAR
STARTCHAR C003A
ENCODING -1 58
SWIDTH 1200 0
DWIDTH 6 0
BBX 1 5 2 0
BITMAP
00
80
00
80
00
ENDCHAR
STARTCHAR C003B
ENCODING -1 59
SWIDTH 1200 0
DWIDTH 6 0
BBX 2 5 1 0
BITMAP
00
40
00
40
80
ENDCHAR
STARTCHAR C003C
ENCODING -1 60
SWIDTH 1200 0
DWIDTH 6 0
BBX 3 5 1 0
BITMAP
20
40
80
40
20
ENDCHAR
STARTCHAR C003D
ENCODING -1 61
SWIDTH 1200 0
DWIDTH 6 0
BBX 4 5 1 0
BITMAP
00
F0
00
F0
00
ENDCHAR
STARTCHAR C003E
ENCODING -1 62
SWIDTH 1200 0
DWIDTH 6 0
BBX 3 5 1 0
BITMAP
80
40
20
40
80
ENDCHAR
STARTCHAR C003F
ENCODING -1 63
SWIDTH 1200 0
DWIDTH 6 0
BBX 4 5 1 0
BITMAP
60
90
20
00
20
ENDCHAR
STARTCHAR C0041
ENCODING -1 65
SWIDTH 1200 0
DWIDTH 6 0
BBX 5 5 0 0
BITMAP
70
88
F8
88
88
ENDCHAR
STARTCHAR C0042
ENCODING -1 66
SWIDTH 1200 0
DWIDTH 6 0
BBX 5 5 0 0
BITMAP
F0
88
F0
88
F0
ENDCHAR
STARTCHAR C0043
ENCODING -1 67
SWIDTH 1200 0
DWIDTH 6 0
BBX 5 5 0 0
BITMAP
78
80
80
80
78
ENDCHAR
STARTCHAR C0044
ENCODING -1 68
SWIDTH 1200 0
DWIDTH 6 0
BBX 5 5 0 0
BITMAP
F0
48
48
48
F0
ENDCHAR
STARTCHAR C0045
ENCODING -1 69
SWIDTH 1200 0
DWIDTH 6 0
BBX 5 5 0 0
BITMAP
F8
80
F0
80
F8
ENDCHAR
STARTCHAR C0046
ENCODING -1 70
SWIDTH 1200 0
DWIDTH 6 0
BBX 5 5 0 0
BITMAP
F8
80
E0
80
80
ENDCHAR
STARTCHAR C0047
ENCODING -1 71
SWIDTH 1200 0
DWIDTH 6 0
BBX 5 5 0 0
BITMAP
78
80
98
88
70
ENDCHAR
STARTCHAR C0048
ENCODING -1 72
SWIDTH 1200 0
DWIDTH 6 0
BBX 5 5 0 0
BITMAP
88
88
F8
88
88
ENDCHAR
STARTCHAR C0049
ENCODING -1 73
SWIDTH 1200 0
DWIDTH 6 0
BBX 5 5 0 0
BITMAP
F8
20
20
20
F8
ENDCHAR
STARTCHAR C004A
ENCODING -1 74
SWIDTH 1200 0
DWIDTH 6 0
BBX 5 5 0 0
BITMAP
F8
10
10
90
60
ENDCHAR
STARTCHAR C004B
ENCODING -1 75
SWIDTH 1200 0
DWIDTH 6 0
BBX 4 5 0 0
BITMAP
90
A0
C0
A0
90
ENDCHAR
STARTCHAR C004C
ENCODING -1 76
SWIDTH 1200 0
DWIDTH 6 0
BBX 4 5 0 0
BITMAP
80
80
80
80
F0
ENDCHAR
STARTCHAR C004D
ENCODING -1 77
SWIDTH 1200 0
DWIDTH 6 0
BBX 5 5 0 0
BITMAP
88
D8
A8
88
88
ENDCHAR
STARTCHAR C004E
ENCODING -1 78
SWIDTH 1200 0
DWIDTH 6 0
BBX 5 5 0 0
BITMAP
C8
A8
98
88
88
ENDCHAR
STARTCHAR C004F
ENCODING -1 79
SWIDTH 1200 0
DWIDTH 6 0
BBX 5 5 0 0
BITMAP
70
88
88
88
70
ENDCHAR
STARTCHAR C0050
ENCODING -1 80
SWIDTH 1200 0
DWIDTH 6 0
BBX 5 5 0 0
BITMAP
F0
88
F0
80
80
ENDCHAR
STARTCHAR C0051
ENCODING -1 81
SWIDTH 1200 0
DWIDTH 6 0
BBX 4 5 0 0
BITMAP
60
90
90
A0
50
ENDCHAR
STARTCHAR C0052
ENCODING -1 82
SWIDTH 1200 0
DWIDTH 6 0
BBX 5 5 0 0
BITMAP
F0
88
F0
90
88
ENDCHAR
STARTCHAR C0053
ENCODING -1 83
SWIDTH 1200 0
DWIDTH 6 0
BBX 5 5 0 0
BITMAP
78
80
70
08
F0
ENDCHAR
STARTCHAR C0054
ENCODING -1 84
SWIDTH 1200 0
DWIDTH 6 0
BBX 5 5 0 0
BITMAP
F8
20
20
20
20
ENDCHAR
STARTCHAR C0055
ENCODING -1 85
SWIDTH 1200 0
DWIDTH 6 0
BBX 5 5 0 0
BITMAP
88
88
88
88
70
ENDCHAR
STARTCHAR C0056
ENCODING -1 86
SWIDTH 1200 0
DWIDTH 6 0
BBX 5 5 0 0
BITMAP
88
88
88
50
20
ENDCHAR
STARTCHAR C0057
ENCODING -1 87
SWIDTH 1200 0
DWIDTH 6 0
BBX 5 5 0 0
BITMAP
88
88
A8
D8
88
ENDCHAR
STARTCHAR C0058
ENCODING -1 88
SWIDTH 1200 0
DWIDTH 6 0
BBX 5 5 0 0
BITMAP
88
50
20
50
88
ENDCHAR
STARTCHAR C0059
ENCODING -1 89
SWIDTH 1200 0
DWIDTH 6 0
BBX 5 5 0 0
BITMAP
88
50
20
20
20
ENDCHAR
STARTCHAR C005A
ENCODING -1 90
SWIDTH 1200 0
DWIDTH 6 0
BBX 5 5 0 0
BITMAP
F8
10
20
40
F8
ENDCHAR
STARTCHAR C005B
ENCODING -1 91
SWIDTH 1200 0
DWIDTH 6 0
BBX 2 5 2 0
BITMAP
C0
80
80
80
C0
ENDCHAR
STARTCHAR C005C
ENCODING -1 92
SWIDTH 1200 0
DWIDTH 6 0
BBX 5 5 0 0
BITMAP
80
40
20
10
08
ENDCHAR
STARTCHAR C005D
ENCODING -1 93
SWIDTH 1200 0
DWIDTH 6 0
BBX 2 5 2 0
BITMAP
C0
40
40
40
C0
ENDCHAR
STARTCHAR C005F
ENCODING -1 95
SWIDTH 1200 0
DWIDTH 6 0
BBX 5 5 0 0
BITMAP
00
00
00
00
F8
ENDCHAR
STARTCHAR C0060
ENCODING -1 96
SWIDTH 1200 0
DWIDTH 6 0
BBX 2 5 2 0
BITMAP
80
80
40
00
00
ENDCHAR
STARTCHAR C0061
ENCODING -1 97
SWIDTH 1200 0
DWIDTH 6 0
BBX 5 5 0 0
BITMAP
70
88
F8
88
88
ENDCHAR
STARTCHAR C0062
ENCODING -1 98
SWIDTH 1200 0
DWIDTH 6 0
BBX 5 5 0 0
BITMAP
F0
88
F0
88
F0
ENDCHAR
STARTCHAR C0063
ENCODING -1 99
SWIDTH 1200 0
DWIDTH 6 0
BBX 5 5 0 0
BITMAP
78
80
80
80
78
ENDCHAR
STARTCHAR C0064
ENCODING -1 100
SWIDTH 1200 0
DWIDTH 6 0
BBX 5 5 0 0
BITMAP
F0
48
48
48
F0
ENDCHAR
STARTCHAR C0065
ENCODING -1 101
SWIDTH 1200 0
DWIDTH 6 0
BBX 5 5 0 0
BITMAP
F8
80
F0
80
F8
ENDCHAR
STARTCHAR C0066
ENCODING -1 102
SWIDTH 1200 0
DWIDTH 6 0
BBX 5 5 0 0
BITMAP
F8
80
E0
80
80
ENDCHAR
STARTCHAR C0067
ENCODING -1 103
SWIDTH 1200 0
DWIDTH 6 0
BBX 5 5 0 0
BITMAP
78
80
98
88
70
ENDCHAR
STARTCHAR C0068
ENCODING -1 104
SWIDTH 1200 0
DWIDTH 6 0
BBX 5 5 0 0
BITMAP
88
88
F8
88
88
ENDCHAR
STARTCHAR C0069
ENCODING -1 105
SWIDTH 1200 0
DWIDTH 6 0
BBX 5 5 0 0
BITMAP
F8
20
20
20
F8
ENDCHAR
STARTCHAR C006A
ENCODING -1 106
SWIDTH 1200 0
DWIDTH 6 0
BBX 5 5 0 0
BITMAP
F8
10
10
90
60
ENDCHAR
STARTCHAR C006B
ENCODING -1 107
SWIDTH 1200 0
DWIDTH 6 0
BBX 4 5 0 0
BITMAP
90
A0
C0
A0
90
ENDCHAR
STARTCHAR C006C
ENCODING -1 108
SWIDTH 1200 0
DWIDTH 6 0
BBX 4 5 0 0
BITMAP
80
80
80
80
F0
ENDCHAR
STARTCHAR C006D
ENCODING -1 109
SWIDTH 1200 0
DWIDTH 6 0
BBX 5 5 0 0
BITMAP
88
D8
A8
88
88
ENDCHAR
STARTCHAR C006E
ENCODING -1 110
SWIDTH 1200 0
DWIDTH 6 0
BBX 5 5 0 0
BITMAP
C8
A8
98
88
88
ENDCHAR
STARTCHAR C006F
ENCODING -1 111
SWIDTH 1200 0
DWIDTH 6 0
BBX 5 5 0 0
BITMAP
70
88
88
88
70
ENDCHAR
STARTCHAR C0070
ENCODING -1 112
SWIDTH 1200 0
DWIDTH 6 0
BBX 5 5 0 0
BITMAP
F0
88
F0
80
80
ENDCHAR
STARTCHAR C0071
ENCODING -1 113
SWIDTH 1200 0
DWIDTH 6 0
BBX 4 5 0 0
BITMAP
60
90
90
A0
50
ENDCHAR
STARTCHAR C0072
ENCODING -1 114
SWIDTH 1200 0
DWIDTH 6 0
BBX 5 5 0 0
BITMAP
F0
88
F0
90
88
ENDCHAR
STARTCHAR C0073
ENCODING -1 115
SWIDTH 1200 0
DWIDTH 6 0
BBX 5 5 0 0
BITMAP
78
80
70
08
F0
ENDCHAR
STARTCHAR C0074
ENCODING -1 116
SWIDTH 1200 0
DWIDTH 6 0
BBX 5 5 0 0
BITMAP
F8
20
20
20
20
ENDCHAR
STARTCHAR C0075
ENCODING -1 117
SWIDTH 1200 0
DWIDTH 6 0
BBX 5 5 0 0
BITMAP
88
88
88
88
70
ENDCHAR
STARTCHAR C0076
ENCODING -1 118
SWIDTH 1200 0
DWIDTH 6 0
BBX 5 5 0 0
BITMAP
88
88
88
50
20
ENDCHAR
STARTCHAR C0077
ENCODING -1 119
SWIDTH 1200 0
DWIDTH 6 0
BBX 5 5 0 0
BITMAP
88
88
A8
D8
88
ENDCHAR
STARTCHAR C0078
ENCODING -1 120
SWIDTH 1200 0
DWIDTH 6 0
BBX 5 5 0 0
BITMAP
88
50
20
50
88
ENDCHAR
STARTCHAR C0079
ENCODING -1 121
SWIDTH 1200 0
DWIDTH 6 0
BBX 5 5 0 0
BITMAP
88
50
20
20
20
ENDCHAR
STARTCHAR C007A
ENCODING -1 122
SWIDTH 1200 0
DWIDTH 6 0
BBX 5 5 0 0
BITMAP
F8
10
20
40
F8
ENDCHAR
STARTCHAR C007C
ENCODING -1 124
SWIDTH 1200 0
DWIDTH 6 0
BBX 1 5 2 0
BITMAP
80
80
80
80
80
ENDCHAR
ENDFONT
